# xmcd
#
# Track frame offsets: 
#        150
#        12064
#        23869
#        35164
#        50092
#        64489
#        77646
#        91376
#        106023
#        120764
#        129869
#        140840
#        153388
#        162293
#
# Disc length: 2329 seconds
#
# Revision: 0
# Processed by: cddbd v1.5.2PL0 Copyright (c) Steve Scherf et al.
# Submitted via: ExactAudioCopyFreeDBPlugin 1.0
#
DISCID=b009170e
DTITLE=Frank Sinatra - Hello Frank - Stormy Weather
DYEAR=2015
DGENRE=Blues
TTITLE0=SOMETHING'S GOTTA GIVE
TTITLE1=I'LL FOLLOW MY SECRET HEART
TTITLE2=IT'S A LOVELY DAY TOMORROW
TTITLE3=STORMY WEATHER
TTITLE4=TIME AFTER TIME
TTITLE5=OH WHAT A BEAUTIFUL MORNING
TTITLE6=NOT SO LONG AGO
TTITLE7=IT'S ALWAYS YOU
TTITLE8=TOO ROMANTIC
TTITLE9=COME OUT, COME OUT, WHEREVER YOU ARE
TTITLE10=COME RAIN OR COME SHINE
TTITLE11=FALLING IN LOVE WITH YOU
TTITLE12=FOR YOU
TTITLE13=CRADLE SONG
EXTD=
EXTT0=
EXTT1=
EXTT2=
EXTT3=
EXTT4=
EXTT5=
EXTT6=
EXTT7=
EXTT8=
EXTT9=
EXTT10=
EXTT11=
EXTT12=
EXTT13=
PLAYORDER=
